<svg width="45" height="45" viewBox="0 0 45 45" fill="none" xmlns="http://www.w3.org/2000/svg">
<path d="M28.62 2.25C32.67 2.25 34.74 2.25 36.9 2.925C39.285 3.78 41.175 5.67 42.03 8.055C42.75 10.26 42.75 12.285 42.75 16.38V28.62C42.75 32.67 42.75 34.74 42.075 36.9C41.22 39.285 39.33 41.175 36.945 42.03C34.74 42.75 32.715 42.75 28.62 42.75H16.38C12.33 42.75 10.26 42.75 8.1 42.075C5.715 41.175 3.825 39.285 2.925 36.9C2.25 34.74 2.25 32.715 2.25 28.62V16.38C2.25 12.33 2.25 10.26 2.925 8.1C3.825 5.715 5.715 3.825 8.1 2.925C10.26 2.25 12.285 2.25 16.38 2.25H28.62Z" fill="url(#paint0_linear)"/>
<path d="M9 14.76C9 14.76 10.305 11.385 15.57 11.385C20.79 11.385 22.185 15.795 22.185 15.795V34.695C22.185 34.695 20.52 29.655 15.615 29.655C12.06 29.655 9.54 31.95 9.54 31.95C9.27 32.175 9 32.04 9 31.68V14.76ZM36 14.76V31.635C36 31.995 35.775 32.13 35.46 31.905C35.46 31.905 32.94 29.61 29.385 29.61C24.525 29.61 22.86 34.65 22.86 34.65V15.75C22.86 15.75 24.21 11.34 29.475 11.34C34.695 11.34 36 14.76 36 14.76Z" fill="#FCFEFF"/>
<defs>
<linearGradient id="paint0_linear" x1="22.4991" y1="2.2491" x2="22.4991" y2="42.7491" gradientUnits="userSpaceOnUse">
<stop stop-color="#00FFFF"/>
<stop offset="1" stop-color="#1E9DF9"/>
</linearGradient>
</defs>
</svg>
