<svg width="120" height="120" viewBox="0 0 120 120" fill="none" xmlns="http://www.w3.org/2000/svg">
<path d="M76.32 6C87.12 6 92.64 6 98.4 7.8C104.76 10.08 109.8 15.12 112.08 21.48C114 27.36 114 32.76 114 43.68V76.32C114 87.12 114 92.64 112.2 98.4C109.92 104.76 104.88 109.8 98.52 112.08C92.64 114 87.24 114 76.32 114H43.68C32.88 114 27.36 114 21.6 112.2C15.24 109.8 10.2 104.76 7.8 98.4C6 92.64 6 87.24 6 76.32V43.68C6 32.88 6 27.36 7.8 21.6C10.2 15.24 15.24 10.2 21.6 7.8C27.36 6 32.76 6 43.68 6H76.32Z" fill="url(#paint0_linear)"/>
<path d="M24 39.36C24 39.36 27.48 30.36 41.52 30.36C55.44 30.36 59.16 42.12 59.16 42.12V92.52C59.16 92.52 54.72 79.08 41.64 79.08C32.16 79.08 25.44 85.2 25.44 85.2C24.72 85.8 24 85.44 24 84.48V39.36V39.36ZM96 39.36V84.36C96 85.32 95.4 85.68 94.56 85.08C94.56 85.08 87.84 78.96 78.36 78.96C65.4 78.96 60.96 92.4 60.96 92.4V42C60.96 42 64.56 30.24 78.6 30.24C92.52 30.24 96 39.36 96 39.36Z" fill="white"/>
<defs>
<linearGradient id="paint0_linear" x1="59.9976" y1="5.9976" x2="59.9976" y2="113.998" gradientUnits="userSpaceOnUse">
<stop stop-color="#00FFFF"/>
<stop offset="1" stop-color="#1E9DF9"/>
</linearGradient>
</defs>
</svg>
